<svg xmlns="http://www.w3.org/2000/svg" xmlns:svg="http://www.w3.org/2000/svg" xmlns:xlink="http://www.w3.org/1999/xlink" id="svg2" x="0" y="0" version="1.1" viewBox="0 0 198 198" xml:space="preserve" style="enable-background:new 0 0 198 198"><style type="text/css">.st0{fill:url(#rect3625_1_)}.st1{fill:#fff}</style><g id="layer1" transform="translate(-278.31427,-410.59064)"><linearGradient id="rect3625_1_" x1="295.559" x2="452.002" y1="427.835" y2="584.278" gradientUnits="userSpaceOnUse"><stop offset="0" style="stop-color:#335ecf"/><stop offset=".517" style="stop-color:#3579d5"/><stop offset="1" style="stop-color:#368dd9"/></linearGradient><rect id="rect3625" width="198" height="198" x="278.3" y="410.6" class="st0"/><path id="path2852" d="M343.9,443.6c-4,0-7.6,0.6-10.8,1.7c-3.2,1.1-5.8,2.7-8,4.8c-2.2,2.1-3.9,4.6-5,7.6 c-1.2,3-1.7,6.4-1.8,10.1c0,3.5,0.5,6.6,1.4,9.3c0.9,2.7,2.2,5.1,3.8,7c1.5,1.9,3.3,3.5,5.4,4.7c2,1.2,4.1,2.1,6.3,2.5v0.7 c-3.1,0.7-6,1.6-8.5,2.9c-2.5,1.3-4.7,2.9-6.5,5c-1.8,2-3.2,4.5-4.1,7.4c-0.9,2.9-1.4,6.2-1.4,10.1c0,4.7,0.6,8.8,1.9,12.4 c1.3,3.6,3.1,6.6,5.4,9.1c2.3,2.4,5.2,4.3,8.7,5.6c3.4,1.3,7.3,1.9,11.5,1.9c4.2,0,7.8-0.4,10.9-1.2c3-0.8,5.6-1.6,7.8-2.5v33h11.7 v-34.7h9.2v34.7h11.7v-33c2.2,0.9,4.7,1.8,7.8,2.5c3.1,0.8,6.7,1.2,10.9,1.2c4.3,0,8.1-0.6,11.5-1.9c3.4-1.3,6.3-3.1,8.7-5.6 c2.3-2.4,4.1-5.5,5.4-9.1c1.3-3.6,1.9-7.8,1.9-12.4c0-3.9-0.5-7.3-1.4-10.1c-0.9-2.9-2.3-5.4-4.1-7.4c-1.8-2.1-3.9-3.7-6.5-5 c-2.5-1.3-5.4-2.2-8.5-2.9v-0.7c2.2-0.5,4.3-1.3,6.3-2.5c2.1-1.2,3.9-2.8,5.4-4.7c1.6-2,2.8-4.3,3.8-7c0.9-2.7,1.4-5.8,1.4-9.3 c0-3.7-0.6-7.1-1.8-10.1c-1.1-3-2.8-5.5-5-7.6c-2.2-2.1-4.8-3.7-8-4.8c-3.1-1.1-6.7-1.7-10.8-1.7c-4.3,0-8.2,0.6-11.8,1.8 c-3.5,1.2-6.5,3.1-9.1,5.9c-2.5,2.7-4.5,6.3-5.9,10.8c-1.1,3.6-1.8,7.8-2,12.7h-9.4c-0.2-4.9-0.9-9.1-2-12.7 c-1.4-4.5-3.4-8.1-5.9-10.8c-2.5-2.8-5.5-4.7-9.1-5.9C352.1,444.2,348.1,443.6,343.9,443.6z M376.8,445.6c-1,0-2,0.2-3,0.7 c-0.9,0.4-1.7,0.9-2.4,1.6c-0.7,0.7-1.3,1.5-1.7,2.5c-0.4,0.9-0.6,1.9-0.6,3c0,1,0.2,2,0.6,2.9c0.4,0.9,1,1.7,1.7,2.4 c0.7,0.7,1.5,1.3,2.4,1.7c0.9,0.4,1.9,0.6,3,0.6c1,0,2-0.2,2.9-0.6c0.9-0.4,1.8-1,2.5-1.7c0.7-0.7,1.2-1.5,1.6-2.4 c0.4-0.9,0.6-1.9,0.6-2.9c0-1-0.2-2-0.6-3c-0.4-0.9-0.9-1.8-1.6-2.5c-0.7-0.7-1.5-1.2-2.5-1.6C378.8,445.8,377.8,445.6,376.8,445.6 z M344,449.2c2.6,0,5,0.5,7.1,1.4c2.1,0.9,3.9,2.5,5.4,4.8c1.5,2.3,2.6,5.3,3.4,9.2c0.8,3.8,1.1,8.7,1.1,14.5v58.4 c-2.5,0.8-5.2,1.5-8.2,2c-3,0.5-6.2,0.7-9.6,0.7c-5.1,0-9-1.8-11.8-5.5c-2.8-3.7-4.2-9.4-4.2-17.1c0-3.5,0.4-6.6,1.2-9.3 c0.8-2.8,2-5.1,3.7-7c1.7-1.9,3.9-3.4,6.6-4.5c2.7-1.1,6-1.7,9.9-1.8v-5.5c-3.3-0.1-6.1-0.6-8.4-1.5c-2.3-0.9-4.2-2.3-5.7-4.1 c-1.5-1.8-2.5-4-3.2-6.6c-0.7-2.7-1-5.8-1-9.3c0-2.8,0.3-5.4,0.8-7.7c0.5-2.3,1.3-4.3,2.5-5.9c1.1-1.6,2.5-2.9,4.2-3.8 C339.6,449.6,341.6,449.2,344,449.2z M410.6,449.2c2.4,0,4.5,0.5,6.2,1.3c1.7,0.9,3.1,2.1,4.2,3.8c1.1,1.6,2,3.6,2.5,5.9 c0.6,2.3,0.8,4.9,0.8,7.7c0,3.5-0.3,6.6-1,9.3c-0.7,2.6-1.7,4.8-3.2,6.6c-1.5,1.8-3.3,3.2-5.7,4.1c-2.3,0.9-5.1,1.4-8.4,1.5v5.5 c3.9,0.1,7.2,0.7,9.9,1.8c2.7,1.1,4.9,2.6,6.6,4.5c1.7,1.9,3,4.3,3.7,7c0.8,2.7,1.2,5.8,1.2,9.3c0,7.7-1.4,13.4-4.2,17.1 c-2.8,3.7-6.7,5.5-11.8,5.5c-3.4,0-6.6-0.2-9.6-0.7c-2.4-0.4-4.7-0.9-6.8-1.5v-0.2l-1.1-0.2c-0.1,0-0.3-0.1-0.4-0.1v-58.4 c0-5.9,0.4-10.7,1.1-14.5c0.8-3.8,1.9-6.9,3.4-9.2c1.5-2.3,3.3-3.9,5.4-4.8C405.6,449.7,408,449.2,410.6,449.2z" class="st1"/></g></svg>