<svg xmlns="http://www.w3.org/2000/svg" xmlns:svg="http://www.w3.org/2000/svg" id="svg2" width="257.5" height="257.5" version="1.1"><metadata id="metadata7"/><g id="layer1" transform="translate(-124.46875,-467.53125)"><rect style="fill:none;stroke:#000;stroke-width:2;stroke-linecap:round;stroke-linejoin:miter;stroke-miterlimit:4;stroke-opacity:1;stroke-dasharray:16,16;stroke-dashoffset:10" id="rect2816" width="255.503" height="255.503" x="125.463" y="468.539"/><g style="font-size:40px;font-style:normal;font-weight:400;fill:#000;fill-opacity:1;stroke:none;font-family:Bitstream Vera Sans" id="text3590"><path style="font-size:200px" id="path2987" d="m 238.1264,645.70483 19.82422,0 0,24.80469 -19.82422,0 0,-24.80469 m 19.23829,-14.35546 -18.65235,0 0,-15.03907 c -4e-5,-6.57546 0.91142,-11.9791 2.73438,-16.21093 1.82287,-4.2317 5.66401,-9.14706 11.52343,-14.7461 l 8.78907,-8.6914 c 3.71087,-3.45043 6.38014,-6.70563 8.00781,-9.76563 1.69264,-3.05979 2.53899,-6.18479 2.53906,-9.375 -7e-5,-5.79415 -2.14851,-10.48165 -6.44531,-14.0625 -4.23183,-3.5806 -9.86334,-5.37096 -16.89453,-5.37109 -5.14328,1.3e-4 -10.64457,1.13945 -16.50391,3.41797 -5.7943,2.27877 -11.84898,5.59908 -18.16406,9.96093 l 0,-18.35937 c 6.11977,-3.7108 12.30466,-6.47772 18.55469,-8.30078 6.31506,-1.82277 12.82547,-2.73423 19.53125,-2.73438 11.9791,1.5e-4 21.58195,3.1577 28.80859,9.47266 7.29158,6.31523 10.93741,14.64856 10.9375,25 -9e-5,4.94802 -1.17197,9.66807 -3.51562,14.16015 -2.34384,4.42718 -6.4454,9.4402 -12.30469,15.03907 l -8.59375,8.39843 c -3.05996,3.05997 -5.24095,5.46882 -6.54297,7.22657 -1.23704,1.69277 -2.11595,3.35293 -2.63672,4.98047 -0.39068,1.36725 -0.68365,3.0274 -0.87891,4.98046 -0.19537,1.95319 -0.29302,4.62245 -0.29296,8.00782 l 0,12.01172"/></g></g></svg>